<?xml version="1.0" encoding="UTF-8" standalone="no"?>
<!DOCTYPE svg PUBLIC "-//W3C//DTD SVG 1.1//EN"
 "http://www.w3.org/Graphics/SVG/1.1/DTD/svg11.dtd">
<!-- Generated by graphviz version 7.1.0 (0)
 -->
<!-- Pages: 1 -->
<svg width="1092pt" height="564pt"
 viewBox="0.00 0.00 1091.54 564.00" xmlns="http://www.w3.org/2000/svg" xmlns:xlink="http://www.w3.org/1999/xlink">
<g id="graph0" class="graph" transform="scale(1 1) rotate(0) translate(4 560)">
<polygon fill="white" stroke="none" points="-4,4 -4,-560 1087.54,-560 1087.54,4 -4,4"/>
<!-- a -->
<!-- b -->
<!-- a&#45;&gt;b -->
<g id="edge1" class="edge">
<title>a&#45;&gt;b</title>
<path fill="none" stroke="darkgray" d="M27,-519.61C27,-474.97 27,-355.97 27,-300.81"/>
<polygon fill="darkgray" stroke="darkgray" points="30.5,-300.96 27,-290.96 23.5,-300.96 30.5,-300.96"/>
<text text-anchor="middle" x="101" y="-400.8" font-family="Times,serif" font-size="14.00">Chapter dependency</text>
</g>
<!-- c -->
<!-- d -->
<!-- c&#45;&gt;d -->
<g id="edge2" class="edge">
<title>c&#45;&gt;d</title>
<path fill="none" stroke="blue" d="M198,-519.61C198,-474.97 198,-355.97 198,-300.81"/>
<polygon fill="blue" stroke="blue" points="201.5,-300.96 198,-290.96 194.5,-300.96 201.5,-300.96"/>
<text text-anchor="middle" x="269" y="-400.8" font-family="Times,serif" font-size="14.00">Recommended path</text>
</g>
<!-- Interactive Proofs -->
<g id="node5" class="node">
<title>Interactive Proofs</title>
<ellipse fill="none" stroke="black" cx="696" cy="-538" rx="94.48" ry="18"/>
<text text-anchor="middle" x="696" y="-534.3" font-family="Times,serif" font-size="14.00">Interactive Proofs</text>
</g>
<!-- Easy/Schnorr -->
<g id="node6" class="node">
<title>Easy/Schnorr</title>
<ellipse fill="none" stroke="black" cx="526" cy="-271" rx="73.39" ry="18"/>
<text text-anchor="middle" x="526" y="-267.3" font-family="Times,serif" font-size="14.00">Easy/Schnorr</text>
</g>
<!-- Interactive Proofs&#45;&gt;Easy/Schnorr -->
<g id="edge3" class="edge">
<title>Interactive Proofs&#45;&gt;Easy/Schnorr</title>
<path fill="none" stroke="darkgray" d="M685.11,-520.02C656.33,-475.16 578.1,-353.22 543.2,-298.82"/>
<polygon fill="darkgray" stroke="darkgray" points="546.18,-296.98 537.84,-290.46 540.29,-300.76 546.18,-296.98"/>
</g>
<!-- Commitments -->
<g id="node7" class="node">
<title>Commitments</title>
<ellipse fill="none" stroke="black" cx="359" cy="-271" rx="76.09" ry="18"/>
<text text-anchor="middle" x="359" y="-267.3" font-family="Times,serif" font-size="14.00">Commitments</text>
</g>
<!-- Interactive Proofs&#45;&gt;Commitments -->
<g id="edge4" class="edge">
<title>Interactive Proofs&#45;&gt;Commitments</title>
<path fill="none" stroke="darkgray" d="M674.41,-520.02C616.13,-474.2 455.57,-347.94 388.77,-295.41"/>
<polygon fill="darkgray" stroke="darkgray" points="391.2,-292.86 381.17,-289.43 386.87,-298.37 391.2,-292.86"/>
</g>
<!-- Graph/Nonisomorphism -->
<g id="node8" class="node">
<title>Graph/Nonisomorphism</title>
<ellipse fill="none" stroke="black" cx="962" cy="-271" rx="121.58" ry="18"/>
<text text-anchor="middle" x="962" y="-267.3" font-family="Times,serif" font-size="14.00">Graph/Nonisomorphism</text>
</g>
<!-- Interactive Proofs&#45;&gt;Graph/Nonisomorphism -->
<g id="edge5" class="edge">
<title>Interactive Proofs&#45;&gt;Graph/Nonisomorphism</title>
<path fill="none" stroke="darkgray" d="M713.04,-520.02C758.54,-474.69 883.03,-350.67 936.76,-297.14"/>
<polygon fill="darkgray" stroke="darkgray" points="939.07,-299.79 943.68,-290.25 934.13,-294.83 939.07,-299.79"/>
</g>
<!-- Graph/Isomorphism -->
<g id="node9" class="node">
<title>Graph/Isomorphism</title>
<ellipse fill="none" stroke="black" cx="720" cy="-271" rx="102.88" ry="18"/>
<text text-anchor="middle" x="720" y="-267.3" font-family="Times,serif" font-size="14.00">Graph/Isomorphism</text>
</g>
<!-- Interactive Proofs&#45;&gt;Graph/Isomorphism -->
<g id="edge6" class="edge">
<title>Interactive Proofs&#45;&gt;Graph/Isomorphism</title>
<path fill="none" stroke="darkgray" d="M697.57,-519.61C701.62,-474.97 712.4,-355.97 717.39,-300.81"/>
<polygon fill="darkgray" stroke="darkgray" points="720.87,-301.23 718.28,-290.96 713.9,-300.6 720.87,-301.23"/>
</g>
<!-- Elliptic Curves -->
<g id="node12" class="node">
<title>Elliptic Curves</title>
<ellipse fill="none" stroke="black" cx="440" cy="-538" rx="79.09" ry="18"/>
<text text-anchor="middle" x="440" y="-534.3" font-family="Times,serif" font-size="14.00">Elliptic Curves</text>
</g>
<!-- Interactive Proofs&#45;&gt;Elliptic Curves -->
<g id="edge11" class="edge">
<title>Interactive Proofs&#45;&gt;Elliptic Curves</title>
<path fill="none" stroke="blue" d="M601.2,-538C577.8,-538 554.39,-538 530.99,-538"/>
<polygon fill="blue" stroke="blue" points="531.01,-534.5 521.01,-538 531.01,-541.5 531.01,-534.5"/>
</g>
<!-- Easy/Schnorr&#45;&gt;Graph/Nonisomorphism -->
<g id="edge13" class="edge">
<title>Easy/Schnorr&#45;&gt;Graph/Nonisomorphism</title>
<path fill="none" stroke="blue" d="M531.98,-289.04C543.16,-319.41 570.38,-379.86 617,-404.5 697.94,-447.28 738.06,-438.68 823,-404.5 875.88,-383.22 919.94,-331.13 943.5,-298.67"/>
<polygon fill="blue" stroke="blue" points="946.35,-300.7 949.27,-290.52 940.63,-296.66 946.35,-300.7"/>
</g>
<!-- Graph/Colorability -->
<g id="node10" class="node">
<title>Graph/Colorability</title>
<ellipse fill="none" stroke="black" cx="303" cy="-18" rx="96.68" ry="18"/>
<text text-anchor="middle" x="303" y="-14.3" font-family="Times,serif" font-size="14.00">Graph/Colorability</text>
</g>
<!-- Commitments&#45;&gt;Graph/Colorability -->
<g id="edge7" class="edge">
<title>Commitments&#45;&gt;Graph/Colorability</title>
<path fill="none" stroke="darkgray" d="M355.15,-252.75C345.66,-210.21 321.06,-99.95 309.36,-47.51"/>
<polygon fill="darkgray" stroke="darkgray" points="312.8,-46.85 307.21,-37.85 305.97,-48.37 312.8,-46.85"/>
</g>
<!-- Game/Sudoku -->
<g id="node11" class="node">
<title>Game/Sudoku</title>
<ellipse fill="none" stroke="black" cx="493" cy="-18" rx="75.29" ry="18"/>
<text text-anchor="middle" x="493" y="-14.3" font-family="Times,serif" font-size="14.00">Game/Sudoku</text>
</g>
<!-- Commitments&#45;&gt;Game/Sudoku -->
<g id="edge8" class="edge">
<title>Commitments&#45;&gt;Game/Sudoku</title>
<path fill="none" stroke="darkgray" d="M364.58,-252.75C383.64,-209.75 443.29,-97.55 474.31,-45.83"/>
<polygon fill="darkgray" stroke="darkgray" points="477.27,-47.69 479.5,-37.33 471.3,-44.04 477.27,-47.69"/>
</g>
<!-- Commitments&#45;&gt;Game/Sudoku -->
<g id="edge15" class="edge">
<title>Commitments&#45;&gt;Game/Sudoku</title>
<path fill="none" stroke="blue" d="M371.6,-253.14C398.25,-210.56 458.42,-98.34 482.84,-46.27"/>
<polygon fill="blue" stroke="blue" points="485.88,-48.04 486.85,-37.49 479.51,-45.13 485.88,-48.04"/>
</g>
<!-- Graph/Nonisomorphism&#45;&gt;Commitments -->
<g id="edge14" class="edge">
<title>Graph/Nonisomorphism&#45;&gt;Commitments</title>
<path fill="none" stroke="blue" d="M950.14,-289.28C928.96,-320.03 881.36,-381.02 823,-404.5 670.45,-465.89 598.96,-480.24 453,-404.5 410.69,-382.54 383.4,-331.82 369.66,-299.61"/>
<polygon fill="blue" stroke="blue" points="372.95,-298.4 365.93,-290.46 366.47,-301.04 372.95,-298.4"/>
</g>
<!-- Elliptic Curves&#45;&gt;Easy/Schnorr -->
<g id="edge9" class="edge">
<title>Elliptic Curves&#45;&gt;Easy/Schnorr</title>
<path fill="none" stroke="darkgray" d="M442.08,-519.61C452.69,-474.68 491.47,-354.39 512.67,-299.73"/>
<polygon fill="darkgray" stroke="darkgray" points="515.89,-301.1 516.35,-290.51 509.39,-298.5 515.89,-301.1"/>
</g>
<!-- Elliptic Curves&#45;&gt;Easy/Schnorr -->
<g id="edge12" class="edge">
<title>Elliptic Curves&#45;&gt;Easy/Schnorr</title>
<path fill="none" stroke="blue" d="M449.03,-520.02C467.47,-475.53 506.79,-355.24 521.21,-300.19"/>
<polygon fill="blue" stroke="blue" points="524.57,-301.2 523.6,-290.65 517.78,-299.5 524.57,-301.2"/>
</g>
<!-- Elliptic Curves&#45;&gt;Commitments -->
<g id="edge10" class="edge">
<title>Elliptic Curves&#45;&gt;Commitments</title>
<path fill="none" stroke="darkgray" d="M434.69,-519.61C420.98,-474.78 384.36,-354.97 367.59,-300.12"/>
<polygon fill="darkgray" stroke="darkgray" points="371.05,-299.44 364.78,-290.9 364.35,-301.49 371.05,-299.44"/>
</g>
</g>
</svg>
