<?xml version="1.0" encoding="UTF-8" standalone="no"?>
<!DOCTYPE svg PUBLIC "-//W3C//DTD SVG 1.1//EN"
 "http://www.w3.org/Graphics/SVG/1.1/DTD/svg11.dtd">
<!-- Generated by graphviz version 7.1.0 (0)
 -->
<!-- Pages: 1 -->
<svg width="1131pt" height="564pt"
 viewBox="0.00 0.00 1130.54 564.00" xmlns="http://www.w3.org/2000/svg" xmlns:xlink="http://www.w3.org/1999/xlink">
<g id="graph0" class="graph" transform="scale(1 1) rotate(0) translate(4 560)">
<polygon fill="white" stroke="none" points="-4,4 -4,-560 1126.54,-560 1126.54,4 -4,4"/>
<!-- a -->
<!-- b -->
<!-- a&#45;&gt;b -->
<g id="edge1" class="edge">
<title>a&#45;&gt;b</title>
<path fill="none" stroke="darkgray" d="M27,-519.61C27,-474.97 27,-355.97 27,-300.81"/>
<polygon fill="darkgray" stroke="darkgray" points="30.5,-300.96 27,-290.96 23.5,-300.96 30.5,-300.96"/>
<text text-anchor="middle" x="101" y="-400.8" font-family="Times,serif" font-size="14.00">Chapter dependency</text>
</g>
<!-- c -->
<!-- d -->
<!-- c&#45;&gt;d -->
<g id="edge2" class="edge">
<title>c&#45;&gt;d</title>
<path fill="none" stroke="blue" d="M198,-519.61C198,-474.97 198,-355.97 198,-300.81"/>
<polygon fill="blue" stroke="blue" points="201.5,-300.96 198,-290.96 194.5,-300.96 201.5,-300.96"/>
<text text-anchor="middle" x="269" y="-400.8" font-family="Times,serif" font-size="14.00">Recommended path</text>
</g>
<!-- Basis/Interactive Proofs -->
<g id="node5" class="node">
<title>Basis/Interactive Proofs</title>
<ellipse fill="none" stroke="black" cx="724" cy="-538" rx="122.38" ry="18"/>
<text text-anchor="middle" x="724" y="-534.3" font-family="Times,serif" font-size="14.00">Basis/Interactive Proofs</text>
</g>
<!-- Easy/Schnorr -->
<g id="node6" class="node">
<title>Easy/Schnorr</title>
<ellipse fill="none" stroke="black" cx="565" cy="-271" rx="73.39" ry="18"/>
<text text-anchor="middle" x="565" y="-267.3" font-family="Times,serif" font-size="14.00">Easy/Schnorr</text>
</g>
<!-- Basis/Interactive Proofs&#45;&gt;Easy/Schnorr -->
<g id="edge3" class="edge">
<title>Basis/Interactive Proofs&#45;&gt;Easy/Schnorr</title>
<path fill="none" stroke="darkgray" d="M713.57,-519.61C686.44,-474.4 613.53,-352.88 581.02,-298.7"/>
<polygon fill="darkgray" stroke="darkgray" points="584.19,-297.18 576.04,-290.4 578.19,-300.78 584.19,-297.18"/>
</g>
<!-- Basis/Commitments -->
<g id="node7" class="node">
<title>Basis/Commitments</title>
<ellipse fill="none" stroke="black" cx="370" cy="-271" rx="103.98" ry="18"/>
<text text-anchor="middle" x="370" y="-267.3" font-family="Times,serif" font-size="14.00">Basis/Commitments</text>
</g>
<!-- Basis/Interactive Proofs&#45;&gt;Basis/Commitments -->
<g id="edge4" class="edge">
<title>Basis/Interactive Proofs&#45;&gt;Basis/Commitments</title>
<path fill="none" stroke="darkgray" d="M701.32,-520.02C640.12,-474.21 471.56,-348.02 401.34,-295.46"/>
<polygon fill="darkgray" stroke="darkgray" points="403.81,-292.94 393.71,-289.75 399.61,-298.54 403.81,-292.94"/>
</g>
<!-- Graph/Nonisomorphism -->
<g id="node8" class="node">
<title>Graph/Nonisomorphism</title>
<ellipse fill="none" stroke="black" cx="1001" cy="-271" rx="121.58" ry="18"/>
<text text-anchor="middle" x="1001" y="-267.3" font-family="Times,serif" font-size="14.00">Graph/Nonisomorphism</text>
</g>
<!-- Basis/Interactive Proofs&#45;&gt;Graph/Nonisomorphism -->
<g id="edge5" class="edge">
<title>Basis/Interactive Proofs&#45;&gt;Graph/Nonisomorphism</title>
<path fill="none" stroke="darkgray" d="M741.75,-520.02C789.22,-474.6 919.3,-350.16 975.06,-296.81"/>
<polygon fill="darkgray" stroke="darkgray" points="977.14,-299.67 981.95,-290.23 972.3,-294.61 977.14,-299.67"/>
</g>
<!-- Graph/Isomorphism -->
<g id="node9" class="node">
<title>Graph/Isomorphism</title>
<ellipse fill="none" stroke="black" cx="759" cy="-271" rx="102.88" ry="18"/>
<text text-anchor="middle" x="759" y="-267.3" font-family="Times,serif" font-size="14.00">Graph/Isomorphism</text>
</g>
<!-- Basis/Interactive Proofs&#45;&gt;Graph/Isomorphism -->
<g id="edge6" class="edge">
<title>Basis/Interactive Proofs&#45;&gt;Graph/Isomorphism</title>
<path fill="none" stroke="darkgray" d="M726.3,-519.61C732.19,-474.97 747.91,-355.97 755.19,-300.81"/>
<polygon fill="darkgray" stroke="darkgray" points="758.66,-301.32 756.5,-290.95 751.72,-300.41 758.66,-301.32"/>
</g>
<!-- Basis/Elliptic Curves -->
<g id="node12" class="node">
<title>Basis/Elliptic Curves</title>
<ellipse fill="none" stroke="black" cx="426" cy="-538" rx="107.48" ry="18"/>
<text text-anchor="middle" x="426" y="-534.3" font-family="Times,serif" font-size="14.00">Basis/Elliptic Curves</text>
</g>
<!-- Basis/Interactive Proofs&#45;&gt;Basis/Elliptic Curves -->
<g id="edge11" class="edge">
<title>Basis/Interactive Proofs&#45;&gt;Basis/Elliptic Curves</title>
<path fill="none" stroke="blue" d="M601.15,-538C582.51,-538 563.88,-538 545.25,-538"/>
<polygon fill="blue" stroke="blue" points="545.48,-534.5 535.48,-538 545.48,-541.5 545.48,-534.5"/>
</g>
<!-- Easy/Schnorr&#45;&gt;Graph/Nonisomorphism -->
<g id="edge13" class="edge">
<title>Easy/Schnorr&#45;&gt;Graph/Nonisomorphism</title>
<path fill="none" stroke="blue" d="M570.98,-289.04C582.16,-319.41 609.38,-379.86 656,-404.5 736.94,-447.28 777.06,-438.68 862,-404.5 914.88,-383.22 958.94,-331.13 982.5,-298.67"/>
<polygon fill="blue" stroke="blue" points="985.35,-300.7 988.27,-290.52 979.63,-296.66 985.35,-300.7"/>
</g>
<!-- Graph/Colorability -->
<g id="node10" class="node">
<title>Graph/Colorability</title>
<ellipse fill="none" stroke="black" cx="314" cy="-18" rx="96.68" ry="18"/>
<text text-anchor="middle" x="314" y="-14.3" font-family="Times,serif" font-size="14.00">Graph/Colorability</text>
</g>
<!-- Basis/Commitments&#45;&gt;Graph/Colorability -->
<g id="edge7" class="edge">
<title>Basis/Commitments&#45;&gt;Graph/Colorability</title>
<path fill="none" stroke="darkgray" d="M366.15,-252.75C356.66,-210.21 332.06,-99.95 320.36,-47.51"/>
<polygon fill="darkgray" stroke="darkgray" points="323.8,-46.85 318.21,-37.85 316.97,-48.37 323.8,-46.85"/>
</g>
<!-- Game/Sudoku -->
<g id="node11" class="node">
<title>Game/Sudoku</title>
<ellipse fill="none" stroke="black" cx="504" cy="-18" rx="75.29" ry="18"/>
<text text-anchor="middle" x="504" y="-14.3" font-family="Times,serif" font-size="14.00">Game/Sudoku</text>
</g>
<!-- Basis/Commitments&#45;&gt;Game/Sudoku -->
<g id="edge8" class="edge">
<title>Basis/Commitments&#45;&gt;Game/Sudoku</title>
<path fill="none" stroke="darkgray" d="M375.58,-252.75C394.64,-209.75 454.29,-97.55 485.31,-45.83"/>
<polygon fill="darkgray" stroke="darkgray" points="488.27,-47.69 490.5,-37.33 482.3,-44.04 488.27,-47.69"/>
</g>
<!-- Basis/Commitments&#45;&gt;Game/Sudoku -->
<g id="edge15" class="edge">
<title>Basis/Commitments&#45;&gt;Game/Sudoku</title>
<path fill="none" stroke="blue" d="M382.84,-252.75C409.57,-209.94 469.3,-98.56 493.72,-46.53"/>
<polygon fill="blue" stroke="blue" points="496.76,-48.3 497.74,-37.75 490.39,-45.38 496.76,-48.3"/>
</g>
<!-- Graph/Nonisomorphism&#45;&gt;Basis/Commitments -->
<g id="edge14" class="edge">
<title>Graph/Nonisomorphism&#45;&gt;Basis/Commitments</title>
<path fill="none" stroke="blue" d="M989.14,-289.28C967.96,-320.03 920.36,-381.02 862,-404.5 709.45,-465.89 642.47,-470.83 492,-404.5 443.26,-383.02 405.55,-331.38 385.64,-298.99"/>
<polygon fill="blue" stroke="blue" points="388.72,-297.31 380.59,-290.51 382.71,-300.9 388.72,-297.31"/>
</g>
<!-- Basis/Elliptic Curves&#45;&gt;Easy/Schnorr -->
<g id="edge9" class="edge">
<title>Basis/Elliptic Curves&#45;&gt;Easy/Schnorr</title>
<path fill="none" stroke="darkgray" d="M431.56,-519.61C451.27,-474.4 514.78,-352.88 546.73,-298.7"/>
<polygon fill="darkgray" stroke="darkgray" points="549.56,-300.78 551.71,-290.4 543.56,-297.17 549.56,-300.78"/>
</g>
<!-- Basis/Elliptic Curves&#45;&gt;Easy/Schnorr -->
<g id="edge12" class="edge">
<title>Basis/Elliptic Curves&#45;&gt;Easy/Schnorr</title>
<path fill="none" stroke="blue" d="M438.43,-520.02C465.88,-475.35 529.68,-354.23 554.89,-299.5"/>
<polygon fill="blue" stroke="blue" points="558,-301.12 558.91,-290.56 551.62,-298.25 558,-301.12"/>
</g>
<!-- Basis/Elliptic Curves&#45;&gt;Basis/Commitments -->
<g id="edge10" class="edge">
<title>Basis/Elliptic Curves&#45;&gt;Basis/Commitments</title>
<path fill="none" stroke="darkgray" d="M422.33,-519.61C412.87,-474.88 387.64,-355.47 376.02,-300.46"/>
<polygon fill="darkgray" stroke="darkgray" points="379.49,-299.99 374,-290.93 372.64,-301.44 379.49,-299.99"/>
</g>
</g>
</svg>
